<svg width="32" height="32" viewBox="0 0 32 32" fill="none" xmlns="http://www.w3.org/2000/svg">
  <path
    d="M16 20.8234C18.6636 20.8234 20.8228 18.6642 20.8228 16.0006C20.8228 13.337 18.6636 11.1777 16 11.1777C13.3364 11.1777 11.1771 13.337 11.1771 16.0006C11.1771 18.6642 13.3364 20.8234 16 20.8234Z"
    fill="black" />
  <path
    d="M16 26.5149C13.9205 26.5149 11.8876 25.8983 10.1586 24.7429C8.42952 23.5876 7.08188 21.9455 6.28608 20.0243C5.49027 18.103 5.28206 15.989 5.68775 13.9494C6.09345 11.9098 7.09484 10.0363 8.56529 8.5659C10.0357 7.09545 11.9092 6.09406 13.9488 5.68836C15.9883 5.28267 18.1024 5.49088 20.0236 6.28669C21.9449 7.08249 23.587 8.43013 24.7423 10.1592C25.8976 11.8883 26.5143 13.9211 26.5143 16.0006C26.5143 18.7892 25.4065 21.4635 23.4347 23.4353C21.4629 25.4071 18.7886 26.5149 16 26.5149ZM16 8.29014C14.475 8.29014 12.9843 8.74236 11.7163 9.58959C10.4483 10.4368 9.46005 11.641 8.87646 13.0499C8.29287 14.4589 8.14018 16.0092 8.43769 17.5049C8.7352 19.0005 9.46955 20.3744 10.5479 21.4527C11.6262 22.5311 13.0001 23.2654 14.4958 23.5629C15.9915 23.8604 17.5418 23.7078 18.9507 23.1242C20.3596 22.5406 21.5638 21.5523 22.411 20.2843C23.2583 19.0163 23.7105 17.5256 23.7105 16.0006C23.7105 13.9557 22.8981 11.9945 21.4521 10.5485C20.0061 9.10249 18.045 8.29014 16 8.29014Z"
    fill="black" />
  <path
    d="M16 32C12.8355 32 9.74207 31.0616 7.11088 29.3035C4.4797 27.5454 2.42894 25.0466 1.21793 22.1229C0.00693253 19.1993 -0.309921 15.9823 0.307443 12.8786C0.924806 9.77487 2.44866 6.92394 4.6863 4.6863C6.92394 2.44866 9.77487 0.924806 12.8786 0.307443C15.9823 -0.309921 19.1993 0.00693253 22.1229 1.21793C25.0466 2.42894 27.5454 4.4797 29.3035 7.11088C31.0616 9.74207 32 12.8355 32 16C32 20.2435 30.3143 24.3131 27.3137 27.3137C24.3131 30.3143 20.2435 32 16 32ZM16 2.28572C13.2876 2.28572 10.6361 3.09005 8.38076 4.597C6.12545 6.10394 4.36766 8.24582 3.32966 10.7518C2.29166 13.2577 2.02007 16.0152 2.54924 18.6755C3.07841 21.3358 4.38457 23.7795 6.30254 25.6975C8.22052 27.6154 10.6642 28.9216 13.3245 29.4508C15.9848 29.9799 18.7423 29.7084 21.2482 28.6704C23.7542 27.6323 25.8961 25.8746 27.403 23.6193C28.91 21.364 29.7143 18.7124 29.7143 16C29.7143 12.3628 28.2694 8.87447 25.6975 6.30254C23.1255 3.73062 19.6373 2.28572 16 2.28572Z"
    fill="black" />
</svg>